<svg xmlns="http://www.w3.org/2000/svg" viewBox="0 0 1242.46 257.87"><defs><style>.cls-1{fill:#fdc90a;}.cls-2{fill:#3c1214;}.cls-3{fill:#fff;}.cls-4{fill:#f7931e;}.cls-5{fill:#f7c03c;}</style></defs><title>Illustration_Home</title><g id="Capa_2" data-name="Capa 2"><g id="Capa_1-2" data-name="Capa 1"><g id="Capa_1-2-2" data-name="Capa 1-2"><g id="Capa_2-2" data-name="Capa 2-2"><polygon class="cls-1" points="1053.3 114.2 1053.3 82.2 1009 56.4 979 251.1 1050.6 251.1 1053.3 114.2"/><path class="cls-2" d="M1052.32,252.86H977l30.71-199.27,47.39,27.6v33.05Zm-71.27-3.51h67.83l2.66-135.16v-31l-41.2-24ZM1053.3,114.2h0Z"/><polyline class="cls-3" points="1116.6 214.8 1116.6 114.2 1039.5 114.2 1050.6 251.1 1107.3 251.1"/><path class="cls-2" d="M1107.3,252.86H1049L1037.6,112.45h80.75V214.8a1.76,1.76,0,1,1-3.51,0V116H1041.4l10.82,133.39h55.08a1.76,1.76,0,0,1,0,3.51Z"/><polygon class="cls-3" points="1107.3 251.1 1184.4 251.1 1184.4 196.2 1127.6 173.3 1107.3 251.1"/><path class="cls-2" d="M1186.16,252.86H1105l21.38-81.93L1186.16,195Zm-76.59-3.51h73.08v-52l-53.86-21.71Z"/><polygon class="cls-2" points="1164.5 209.1 1175 209.1 1175 191.6 1164.5 188 1164.5 209.1"/><polygon class="cls-2" points="1148.7 209.1 1159.3 209.1 1159.3 186.1 1148.7 182.6 1148.7 209.1"/><rect class="cls-2" x="1119.5" y="221.3" width="10.5" height="29.8"/><path class="cls-2" d="M1172.1,236.18h-29.2a.88.88,0,0,1,0-1.75h29.2a.88.88,0,0,1,0,1.75Z"/><path class="cls-2" d="M1172.1,239.49h-29.2a.59.59,0,0,1,0-1.17h29.2a.59.59,0,0,1,0,1.17Z"/><path class="cls-2" d="M1172.1,244.67h-29.2a1.17,1.17,0,0,1,0-2.34h29.2a1.17,1.17,0,1,1,0,2.34Z"/><path class="cls-2" d="M1145.8,244.09a.59.59,0,0,1-.59-.59v-9.9a.59.59,0,0,1,.59-.58.58.58,0,0,1,.58.58v9.9A.58.58,0,0,1,1145.8,244.09Z"/><path class="cls-2" d="M1169.2,244.09a.58.58,0,0,1-.58-.59v-9.9a.58.58,0,0,1,.58-.58.59.59,0,0,1,.59.58v9.9A.59.59,0,0,1,1169.2,244.09Z"/><path class="cls-2" d="M1170.4,250.28a.87.87,0,0,1-.87-.88v-5.3a.88.88,0,0,1,1.75,0v5.3A.88.88,0,0,1,1170.4,250.28Z"/><path class="cls-2" d="M1144.7,250.28a.87.87,0,0,1-.87-.88v-5.3a.88.88,0,0,1,1.75,0v5.3A.88.88,0,0,1,1144.7,250.28Z"/><polygon class="cls-4" points="1055.9 249.1 1074.2 249.1 1074.2 121.2 1044.8 121.2 1055.9 249.1"/><path class="cls-3" d="M1100.7,137.7h-47.9a3.9,3.9,0,0,1-3.9-3.9h0v-.2a3.91,3.91,0,0,1,3.9-3.9h47.9a3.91,3.91,0,0,1,3.9,3.9h0v.2a3.84,3.84,0,0,1-3.78,3.9Z"/><path class="cls-2" d="M1100.7,138.56h-47.9a4.77,4.77,0,0,1-4.76-4.76v-.2a4.76,4.76,0,0,1,4.76-4.75h47.9a4.76,4.76,0,0,1,4.76,4.75v.2a4.72,4.72,0,0,1-1.33,3.33,4.66,4.66,0,0,1-3.3,1.43Zm-47.9-8a3,3,0,0,0-3,3v.2a3,3,0,0,0,3,3h48a3,3,0,0,0,2.94-3v-.22a3,3,0,0,0-3-3Z"/><path class="cls-3" d="M1100.6,120.3h-47.9a3.9,3.9,0,0,1-3.9-3.9h0v-.2a3.91,3.91,0,0,1,3.9-3.9h47.9a3.91,3.91,0,0,1,3.9,3.9h0v.2a3.84,3.84,0,0,1-3.78,3.9Z"/><path class="cls-2" d="M1100.6,121.16h-47.9a4.77,4.77,0,0,1-4.76-4.76v-.2a4.76,4.76,0,0,1,4.76-4.75h47.9a4.76,4.76,0,0,1,4.76,4.75v.2a4.71,4.71,0,0,1-4.63,4.76Zm-47.9-8a3,3,0,0,0-3,3v.2a3,3,0,0,0,3,3h48a3,3,0,0,0,3-3v-.22a3,3,0,0,0-3-3Z"/><path class="cls-3" d="M1100.7,155.7h-47.9a3.9,3.9,0,0,1-3.9-3.9h0v-.2a3.91,3.91,0,0,1,3.9-3.9h47.9a3.91,3.91,0,0,1,3.9,3.9h0v.2a3.84,3.84,0,0,1-3.78,3.9Z"/><path class="cls-2" d="M1100.7,156.56h-47.9a4.77,4.77,0,0,1-4.76-4.76v-.2a4.76,4.76,0,0,1,4.76-4.75h47.9a4.76,4.76,0,0,1,4.76,4.75v.2a4.72,4.72,0,0,1-1.33,3.33,4.66,4.66,0,0,1-3.3,1.43Zm-47.9-8a3,3,0,0,0-3,3v.2a3,3,0,0,0,3,3h48a3,3,0,0,0,2.94-3v-.22a3,3,0,0,0-3-3Z"/><path class="cls-3" d="M1100.6,173.7h-47.9a3.9,3.9,0,0,1-3.9-3.9h0v-.2a3.91,3.91,0,0,1,3.9-3.9h47.9a3.91,3.91,0,0,1,3.9,3.9h0v.2a3.9,3.9,0,0,1-3.9,3.9Z"/><path class="cls-2" d="M1100.6,174.56h-47.9a4.77,4.77,0,0,1-4.76-4.76v-.2a4.76,4.76,0,0,1,4.76-4.75h47.9a4.76,4.76,0,0,1,4.76,4.75v.2A4.77,4.77,0,0,1,1100.6,174.56Zm-47.9-8a3,3,0,0,0-3,3v.2a3,3,0,0,0,3,3h47.9a3,3,0,0,0,3-3v-.2a3,3,0,0,0-3-3Z"/><path class="cls-3" d="M1100.6,191.6h-47.9a3.9,3.9,0,0,1-3.9-3.9h0v-.2a3.91,3.91,0,0,1,3.9-3.9h47.9a3.91,3.91,0,0,1,3.9,3.9h0v.2a3.84,3.84,0,0,1-3.78,3.9Z"/><path class="cls-2" d="M1100.6,192.46h-47.9a4.77,4.77,0,0,1-4.76-4.76v-.2a4.76,4.76,0,0,1,4.76-4.75h47.9a4.76,4.76,0,0,1,4.76,4.75v.2a4.71,4.71,0,0,1-4.63,4.76Zm-47.9-8a3,3,0,0,0-3,3v.2a3,3,0,0,0,3,3.05h48a3,3,0,0,0,2.94-3v-.22a3,3,0,0,0-3-3Z"/><path class="cls-3" d="M1100.6,209.6h-47.9a3.9,3.9,0,0,1-3.9-3.9h0v-.2a3.91,3.91,0,0,1,3.9-3.9h47.9a3.91,3.91,0,0,1,3.9,3.9h0v.2a3.84,3.84,0,0,1-3.78,3.9Z"/><path class="cls-2" d="M1100.6,210.46h-47.9a4.77,4.77,0,0,1-4.76-4.76v-.2a4.76,4.76,0,0,1,4.76-4.75h47.9a4.76,4.76,0,0,1,4.76,4.75v.2a4.71,4.71,0,0,1-4.63,4.76Zm-47.9-8a3,3,0,0,0-3,3v.2a3,3,0,0,0,3,3.05h48a3,3,0,0,0,2.94-3v-.22a3,3,0,0,0-3-3Z"/><path class="cls-3" d="M1173.7,83.7a12.07,12.07,0,0,1,1.8.1,22.21,22.21,0,1,1,9.3,30h0a23.78,23.78,0,0,1-4.2-2.9,14.47,14.47,0,1,1-13.7-25.5h0a14.64,14.64,0,0,1,6.8-1.7Z"/><path class="cls-2" d="M1195.11,117.21a22.93,22.93,0,0,1-10.71-2.65,25.38,25.38,0,0,1-3.92-2.64,15.32,15.32,0,0,1-14-27.27,15.42,15.42,0,0,1,7.19-1.8,9.85,9.85,0,0,1,1.33,0,23.07,23.07,0,1,1,20.09,34.32Zm-14.4-7.34.45.38a23,23,0,0,0,4,2.8,21.35,21.35,0,1,0-9-28.85l-.28.53-.6-.08a9.24,9.24,0,0,0-1.66-.09h0a13.76,13.76,0,0,0-6.4,1.6,13.62,13.62,0,0,0,12.9,24Z"/><circle class="cls-3" cx="1217.3" cy="103.8" r="10.3"/><path class="cls-2" d="M1217.3,115a11.16,11.16,0,1,1,11.16-11.16A11.18,11.18,0,0,1,1217.3,115Zm0-20.6a9.45,9.45,0,1,0,9.44,9.44A9.44,9.44,0,0,0,1217.3,94.36Z"/><rect class="cls-2" x="1012.7" y="94.2" width="40.6" height="8.6"/><rect class="cls-2" x="1012.7" y="116.4" width="26.9" height="8.6"/><rect class="cls-2" x="1012.7" y="138.5" width="29.2" height="8.6"/><rect class="cls-2" x="1012.7" y="160.7" width="30.6" height="8.6"/><rect class="cls-2" x="1012.7" y="182.9" width="33" height="8.6"/><circle class="cls-4" cx="1000.3" cy="98.4" r="8.7"/><circle class="cls-4" cx="1000.3" cy="189.6" r="8.7"/><circle class="cls-4" cx="1000.3" cy="140.5" r="8.7"/><circle class="cls-4" cx="1000.3" cy="121.7" r="5.4"/><circle class="cls-4" cx="1000.3" cy="165.1" r="5.4"/><circle class="cls-2" cx="1000.2" cy="98.5" r="3.3"/><circle class="cls-2" cx="1000.2" cy="142.9" r="3.3"/><circle class="cls-2" cx="1000.2" cy="187.7" r="3.3"/><circle class="cls-2" cx="1000.2" cy="165.1" r="2"/><circle class="cls-2" cx="1000.2" cy="120.7" r="1.6"/><path class="cls-2" d="M955.5,213.36a24.26,24.26,0,1,1,24.26-24.26A24.29,24.29,0,0,1,955.5,213.36Zm0-46.8A22.55,22.55,0,1,0,978,189.1,22.56,22.56,0,0,0,955.5,166.56Z"/><circle class="cls-4" cx="955.5" cy="193" r="14.3"/><path class="cls-2" d="M955.5,254.26a1.75,1.75,0,0,1-1.75-1.76V194.6a1.75,1.75,0,1,1,3.5,0v57.9A1.75,1.75,0,0,1,955.5,254.26Z"/><circle class="cls-3" cx="1217.3" cy="216.3" r="23.4"/><path class="cls-2" d="M1217.3,240.56a24.26,24.26,0,1,1,24.26-24.26A24.29,24.29,0,0,1,1217.3,240.56Zm0-46.8a22.55,22.55,0,1,0,22.54,22.54A22.56,22.56,0,0,0,1217.3,193.76Z"/><circle class="cls-4" cx="1217.3" cy="220.1" r="14.3"/><path class="cls-2" d="M1217.3,254.26a1.76,1.76,0,0,1-1.76-1.76V221.8a1.76,1.76,0,0,1,3.51,0v30.7A1.75,1.75,0,0,1,1217.3,254.26Z"/><path class="cls-2" d="M1029.3,61.76a1.76,1.76,0,1,1,0-3.51,5.7,5.7,0,1,0,0-11.39h-77a1.76,1.76,0,1,1,0-3.51h77a9.21,9.21,0,0,1,0,18.41Z"/><path class="cls-2" d="M960.5,20a1.76,1.76,0,0,1,0-3.51H1038a5.7,5.7,0,0,0-.44-11.39,1.76,1.76,0,0,1-.12-3.51,9.21,9.21,0,0,1,.62,18.41Z"/><path class="cls-4" d="M997.64,29.81h-7a1.17,1.17,0,1,1,0-2.34h7a1.17,1.17,0,0,1,0,2.34Zm9.35,0a1.17,1.17,0,0,1,0-2.34c5.33,0,6.52-.07,6.78-.09a1.17,1.17,0,0,1,.76,2.19c-.33.16-.41.21-7.53.24Zm-25.74,0h0l-7,0a1.17,1.17,0,1,1,0-2.34h0l7,0a1.17,1.17,0,0,1,0,2.34Zm-16.38-.05h0l-7,0a1.17,1.17,0,1,1,0-2.34h0l7,0a1.17,1.17,0,0,1,0,2.34Z"/><path class="cls-2" d="M979.3,91.81h0A1.3,1.3,0,0,1,978,90.5a8.69,8.69,0,0,1,4.23-7.42,8.53,8.53,0,0,1,11.7,3.07,1.31,1.31,0,0,1-2.26,1.31,5.91,5.91,0,0,0-8.08-2.15,6.11,6.11,0,0,0-3,5.2A1.3,1.3,0,0,1,979.3,91.81Z"/><path class="cls-2" d="M979.3,93.71a1.3,1.3,0,0,1-1.3-1.29,6,6,0,0,0-6-5.92h-.08a6,6,0,0,0-5.42,3.62,1.31,1.31,0,0,1-2.4-1,8.62,8.62,0,0,1,7.79-5.18H972a8.62,8.62,0,0,1,8.6,8.49,1.3,1.3,0,0,1-1.28,1.33Z"/><path class="cls-2" d="M994.5,37.37H945.9a1.17,1.17,0,1,1,0-2.34h48.6a1.17,1.17,0,0,1,0,2.34Z"/><polygon class="cls-1" points="189.8 114.2 189.8 82.2 234.1 56.4 264.1 251.1 192.4 251.1 189.8 114.2"/><path class="cls-2" d="M266.15,252.86H190.68L188,114.2v-33l47.4-27.6Zm-72-3.51h67.93L232.76,59.21l-41.21,24v31Z"/><polyline class="cls-3" points="126.5 214.8 126.5 114.2 203.6 114.2 192.4 251.1 135.8 251.1"/><path class="cls-2" d="M194,252.86H135.8a1.76,1.76,0,1,1,0-3.51h55L201.7,116H128.25V214.8a1.75,1.75,0,1,1-3.5,0V112.45H205.5Z"/><polygon class="cls-3" points="135.8 251.1 58.7 251.1 58.7 196.2 115.5 173.3 135.8 251.1"/><path class="cls-2" d="M138.07,252.86H57V195l59.74-24.09Zm-77.61-3.51h73.07l-19.22-73.67L60.46,197.39Z"/><polygon class="cls-2" points="78.6 209.1 68.1 209.1 68.1 192.9 78.6 188 78.6 209.1"/><polygon class="cls-2" points="94.3 209.1 83.8 209.1 83.8 186.1 94.3 182.6 94.3 209.1"/><rect class="cls-2" x="113" y="221.3" width="10.5" height="29.8"/><path class="cls-2" d="M100.2,236.18H71a.88.88,0,0,1,0-1.75h29.2a.88.88,0,1,1,0,1.75Z"/><path class="cls-2" d="M100.2,239.49H71a.59.59,0,0,1,0-1.17h29.2a.59.59,0,1,1,0,1.17Z"/><path class="cls-2" d="M100.2,244.67H71a1.17,1.17,0,0,1,0-2.34h29.2a1.17,1.17,0,1,1,0,2.34Z"/><path class="cls-2" d="M97.3,244.09a.59.59,0,0,1-.59-.59v-9.9a.59.59,0,0,1,.59-.58.58.58,0,0,1,.58.58v9.9A.58.58,0,0,1,97.3,244.09Z"/><path class="cls-2" d="M73.9,244.09a.59.59,0,0,1-.59-.59v-9.9a.59.59,0,0,1,.59-.58.58.58,0,0,1,.58.58v9.9A.58.58,0,0,1,73.9,244.09Z"/><path class="cls-2" d="M72.7,250.28a.87.87,0,0,1-.87-.88v-5.3a.88.88,0,0,1,1.75,0v5.3A.88.88,0,0,1,72.7,250.28Z"/><path class="cls-2" d="M98.4,250.28a.88.88,0,0,1-.88-.88v-5.3a.88.88,0,0,1,1.75,0v5.3A.87.87,0,0,1,98.4,250.28Z"/><polygon class="cls-4" points="187.1 249.1 168.8 249.1 168.8 121.2 198.2 121.2 187.1 249.1"/><path class="cls-3" d="M142.3,129.8h47.9a3.91,3.91,0,0,1,3.9,3.9v.2a3.9,3.9,0,0,1-3.9,3.9H142.3a3.9,3.9,0,0,1-3.9-3.9v-.2A4,4,0,0,1,142.3,129.8Z"/><path class="cls-2" d="M190.2,138.66H142.3a4.77,4.77,0,0,1-4.76-4.76v-.2a4.86,4.86,0,0,1,4.74-4.75H190.2A4.76,4.76,0,0,1,195,133.7v.2A4.77,4.77,0,0,1,190.2,138.66Zm-47.89-8a3.15,3.15,0,0,0-3.06,3.06v.18a3.06,3.06,0,0,0,3.05,3h47.9a3.06,3.06,0,0,0,3.05-3v-.2a3,3,0,0,0-3.05-3Z"/><path class="cls-3" d="M142.5,112.4h47.9a3.91,3.91,0,0,1,3.9,3.9v.2a3.9,3.9,0,0,1-3.9,3.9H142.5a3.9,3.9,0,0,1-3.9-3.9v-.2a3.85,3.85,0,0,1,3.78-3.9Z"/><path class="cls-2" d="M190.4,121.26H142.5a4.76,4.76,0,0,1-4.75-4.76v-.2a4.69,4.69,0,0,1,4.62-4.75h48a4.75,4.75,0,0,1,4.75,4.75v.2A4.76,4.76,0,0,1,190.4,121.26Zm-48-8a3,3,0,0,0-2.93,3v.21a3,3,0,0,0,3,3h47.9a3,3,0,0,0,3-3v-.2a3,3,0,0,0-3-3Z"/><path class="cls-3" d="M142.3,147.8h47.9a3.91,3.91,0,0,1,3.9,3.9v.2a3.9,3.9,0,0,1-3.9,3.9H142.3a3.9,3.9,0,0,1-3.9-3.9v-.2A4,4,0,0,1,142.3,147.8Z"/><path class="cls-2" d="M190.2,156.66H142.3a4.77,4.77,0,0,1-4.76-4.76v-.2a4.86,4.86,0,0,1,4.74-4.75H190.2A4.76,4.76,0,0,1,195,151.7v.2A4.77,4.77,0,0,1,190.2,156.66Zm-47.89-8a3.15,3.15,0,0,0-3.06,3.06v.18a3.06,3.06,0,0,0,3.05,3h47.9a3.06,3.06,0,0,0,3.05-3v-.2a3,3,0,0,0-3.05-3Z"/><path class="cls-3" d="M142.5,165.8h47.9a3.91,3.91,0,0,1,3.9,3.9v.2a3.9,3.9,0,0,1-3.9,3.9H142.5a3.9,3.9,0,0,1-3.9-3.9v-.2a3.85,3.85,0,0,1,3.78-3.9Z"/><path class="cls-2" d="M190.4,174.66H142.5a4.76,4.76,0,0,1-4.75-4.76v-.2a4.69,4.69,0,0,1,4.62-4.75h48a4.75,4.75,0,0,1,4.75,4.75v.2A4.76,4.76,0,0,1,190.4,174.66Zm-48-8a3,3,0,0,0-2.93,3v.21a3,3,0,0,0,3,3h47.9a3,3,0,0,0,3-3v-.2a3,3,0,0,0-3-3Z"/><path class="cls-3" d="M142.5,183.7h47.9a3.91,3.91,0,0,1,3.9,3.9v.2a3.9,3.9,0,0,1-3.9,3.9H142.5a3.9,3.9,0,0,1-3.9-3.9v-.2A3.91,3.91,0,0,1,142.5,183.7Z"/><path class="cls-2" d="M190.4,192.56H142.5a4.76,4.76,0,0,1-4.75-4.76v-.2a4.75,4.75,0,0,1,4.75-4.75h47.9a4.75,4.75,0,0,1,4.75,4.75v.2A4.76,4.76,0,0,1,190.4,192.56Zm-47.9-8a3,3,0,0,0-3,3v.2a3,3,0,0,0,3,3h47.9a3,3,0,0,0,3-3v-.2a3,3,0,0,0-3-3Z"/><path class="cls-3" d="M142.5,201.7h47.9a3.91,3.91,0,0,1,3.9,3.9v.2a3.9,3.9,0,0,1-3.9,3.9H142.5a3.9,3.9,0,0,1-3.9-3.9v-.2a3.85,3.85,0,0,1,3.78-3.9Z"/><path class="cls-2" d="M190.4,210.56H142.5a4.76,4.76,0,0,1-4.75-4.76v-.2a4.68,4.68,0,0,1,4.62-4.75h48a4.75,4.75,0,0,1,4.75,4.75v.2A4.76,4.76,0,0,1,190.4,210.56Zm-48-8a3,3,0,0,0-2.94,3v.21a3,3,0,0,0,3,3h47.9a3,3,0,0,0,3-3v-.2a3,3,0,0,0-3-3Z"/><path class="cls-3" d="M69.4,83.7a12.07,12.07,0,0,0-1.8.1,22.21,22.21,0,1,0-9.3,30h0a23.78,23.78,0,0,0,4.2-2.9A14.47,14.47,0,0,0,76.2,85.4h0A14.92,14.92,0,0,0,69.4,83.7Z"/><path class="cls-2" d="M48,117.23A23.07,23.07,0,1,1,68.08,82.89a9.85,9.85,0,0,1,1.33,0,15.79,15.79,0,0,1,7.19,1.8,15.33,15.33,0,0,1-14,27.27,24.45,24.45,0,0,1-3.9,2.63A22.94,22.94,0,0,1,48,117.23ZM47.91,72.8a21.35,21.35,0,1,0,10,40.25,23.3,23.3,0,0,0,4-2.8l.45-.38.51.28a13.62,13.62,0,0,0,12.9-24,14,14,0,0,0-6.41-1.6h0a9.24,9.24,0,0,0-1.66.09l-.6.08-.28-.53A21.38,21.38,0,0,0,47.91,72.8Z"/><circle class="cls-3" cx="25.8" cy="103.8" r="10.3"/><path class="cls-2" d="M25.8,115A11.16,11.16,0,1,1,37,103.8,11.17,11.17,0,0,1,25.8,115Zm0-20.6a9.45,9.45,0,1,0,9.45,9.44A9.44,9.44,0,0,0,25.8,94.36Z"/><rect class="cls-2" x="189.8" y="94.2" width="40.6" height="8.6"/><rect class="cls-2" x="203.6" y="116.4" width="26.9" height="8.6"/><rect class="cls-2" x="201.2" y="138.6" width="29.2" height="8.6"/><rect class="cls-2" x="199.8" y="160.7" width="30.6" height="8.6"/><rect class="cls-2" x="197.4" y="182.9" width="33" height="8.6"/><circle class="cls-4" cx="242.8" cy="98.4" r="8.7"/><circle class="cls-4" cx="242.8" cy="189.6" r="8.7"/><circle class="cls-4" cx="242.8" cy="140.5" r="8.7"/><circle class="cls-4" cx="242.8" cy="121.7" r="5.4"/><circle class="cls-4" cx="242.8" cy="165.1" r="5.4"/><circle class="cls-2" cx="242.9" cy="98.5" r="3.3"/><circle class="cls-2" cx="242.9" cy="142.9" r="3.3"/><circle class="cls-2" cx="242.9" cy="187.7" r="3.3"/><circle class="cls-2" cx="242.9" cy="165.1" r="2"/><circle class="cls-2" cx="242.9" cy="120.7" r="1.6"/><path class="cls-2" d="M287.5,208.36a24.26,24.26,0,1,1,24.25-24.26A24.28,24.28,0,0,1,287.5,208.36Zm0-46.8A22.55,22.55,0,1,0,310,184.1,22.56,22.56,0,0,0,287.5,161.56Z"/><circle class="cls-4" cx="287.5" cy="188" r="14.3"/><path class="cls-2" d="M287.5,250.36a1.75,1.75,0,0,1-1.75-1.76v-59a1.75,1.75,0,0,1,3.5,0v59A1.75,1.75,0,0,1,287.5,250.36Z"/><circle class="cls-3" cx="25.8" cy="216.3" r="23.4"/><path class="cls-2" d="M25.8,240.56A24.26,24.26,0,1,1,50.06,216.3,24.29,24.29,0,0,1,25.8,240.56Zm0-46.8A22.55,22.55,0,1,0,48.35,216.3,22.57,22.57,0,0,0,25.8,193.76Z"/><circle class="cls-4" cx="25.8" cy="220.1" r="14.3"/><path class="cls-2" d="M25.8,254.26A1.76,1.76,0,0,1,24,252.5V221.8a1.76,1.76,0,0,1,3.51,0v30.7A1.75,1.75,0,0,1,25.8,254.26Z"/><path class="cls-2" d="M143.3,67.56a9.26,9.26,0,1,1,0-18.51h77a1.76,1.76,0,0,1,0,3.51h-77a5.75,5.75,0,1,0,0,11.49,1.76,1.76,0,0,1,0,3.51Z"/><path class="cls-2" d="M212.1,25.76h-77a9.21,9.21,0,1,1,0-18.41,1.76,1.76,0,1,1,0,3.51,5.7,5.7,0,0,0,0,11.39h77a1.76,1.76,0,1,1,0,3.51Z"/><path class="cls-4" d="M175,35.61a1.17,1.17,0,0,1,0-2.34h7a1.17,1.17,0,0,1,0,2.34Zm-9.35,0h0c-7.12,0-7.21-.08-7.53-.24a1.17,1.17,0,0,1,.76-2.19c.26,0,1.45.07,6.78.09a1.17,1.17,0,0,1,0,2.34Zm25.74,0a1.17,1.17,0,1,1,0-2.34l7,0h0a1.17,1.17,0,0,1,0,2.34l-7,0Zm16.38,0a1.17,1.17,0,0,1,0-2.34l7,0h0a1.17,1.17,0,1,1,0,2.34l-7,0Z"/><path class="cls-2" d="M226.7,43.17H178.1a1.17,1.17,0,1,1,0-2.34h48.6a1.17,1.17,0,1,1,0,2.34Z"/><path class="cls-2" d="M177.9,9.91a1.31,1.31,0,0,1-1.31-1.3,6.07,6.07,0,0,0-3-5.19,5.92,5.92,0,0,0-8.1,2.14,1.31,1.31,0,0,1-2.26-1.31,8.52,8.52,0,0,1,11.65-3.09,8.72,8.72,0,0,1,4.29,7.44,1.31,1.31,0,0,1-1.31,1.31Z"/><path class="cls-2" d="M178,11.91h0a1.3,1.3,0,0,1-1.28-1.32,8.61,8.61,0,0,1,16.5-3.31,1.31,1.31,0,1,1-2.4,1,6,6,0,0,0-11.5,2.3A1.3,1.3,0,0,1,178,11.91Z"/><path class="cls-3" d="M1.5,253.6s432-3,513.1-5.3,285.9,0,285.9,0a16.69,16.69,0,0,0,5.8-5.8c1.8-3.5,2.2-12.4,2.2-12.4s-7.7-2.1-5.8-11.4,4.5-5.2,5.9-1.6,8.2,14.1,16.1,12.9,8.6-5.6,9.6-10,1.4-7.5,4.9-8.9,14.5-7.2,18.9-9.6,5.4-4.2,8.4-3.3,8.7,10.8,5.6,20.3-13.6,10.8-16.6,10.8a29.25,29.25,0,0,1-5.2-.4s-3.3,8.4-1.9,14,3.8,11.5,1,10.5-9.1-8.4-9.1-8.4a42.66,42.66,0,0,1-14.2,1.9c-8.6-.2-13.5,0-18,3s-7.3-.5-7.3-.5"/><path class="cls-2" d="M1.5,255.1a1.5,1.5,0,0,1,0-3c4.32,0,432.91-3,513.07-5.3,78.41-2.22,274.89-.12,285.52,0a15.32,15.32,0,0,0,4.93-5.07c1.14-2.22,1.73-7.67,1.93-10.6-3.14-1.39-7.24-5.26-5.71-12.73.95-4.65,2.18-6.71,4.1-6.87s3.27,1.45,4.67,5c1.14,2.95,7.43,13,14.47,12,6.6-1,7.33-4.25,8.26-8.37l.34-1.53c.87-3.93,1.63-7.33,5.57-8.91,3.35-1.34,14-7,18.74-9.52,1.21-.67,2.15-1.28,3-1.81,2.19-1.43,3.76-2.46,6.57-1.61,2.32.69,4.21,3.91,4.92,5.26A22.41,22.41,0,0,1,873.53,219c-3.82,11.7-17.45,11.83-18,11.83a29.58,29.58,0,0,1-4.2-.24c-.79,2.38-2.43,8.05-1.44,12,.3,1.22.65,2.46,1,3.63,1.24,4.34,2,7,.58,8.27a2.32,2.32,0,0,1-2.53.38c-2.64-.94-7.23-6-9.1-8.1a44.35,44.35,0,0,1-13.75,1.68c-8.53-.2-13,0-17.12,2.75-4.46,3-8,.77-9.3-.81a1.44,1.44,0,0,1-.28-.55c-16.56-.18-207.68-2.17-284.71,0-80.19,2.28-508.81,5.27-513.13,5.3Zm839.3-11.82.64.75c2.19,2.56,5.71,6.24,7.69,7.55-.19-1.2-.74-3.09-1.16-4.59-.35-1.2-.71-2.47-1-3.72-1.5-6,1.81-14.55,1.95-14.92l.45-1.13,1.2.2a27.09,27.09,0,0,0,4.93.38c.51,0,12-.11,15.19-9.76,2.2-6.73-.58-12.89-1.48-14.62-1.29-2.46-2.6-3.62-3.12-3.78-1.42-.42-2-.09-4.07,1.25-.83.54-1.87,1.21-3.18,1.93-3.77,2.05-15.28,8.16-19.06,9.68-2.38.95-2.87,2.76-3.76,6.77l-.35,1.54c-1,4.39-2.1,9.37-10.72,10.68a11.07,11.07,0,0,1-1.51.11c-8.19,0-14.69-10-16.22-13.95a9.3,9.3,0,0,0-1.61-3,12.43,12.43,0,0,0-1.42,4.33c-1.56,7.63,4.08,9.47,4.73,9.66L810,229l0,1.19c0,.94-.47,9.33-2.37,13a18.32,18.32,0,0,1-5.25,5.68c.76.61,2.42,1.43,4.89-.22,5-3.32,10.45-3.44,18.86-3.25a41.05,41.05,0,0,0,13.72-1.83Z"/><path class="cls-2" d="M856.6,249.5c-2.29,0-5.64-1.91-7.1-2.83a1.5,1.5,0,0,1,1.59-2.54,21.67,21.67,0,0,0,4.74,2.27c-1.09-2-4.64-6.24-7.91-9.66a1.49,1.49,0,0,1,0-2.12,1.51,1.51,0,0,1,2.12,0c10.22,10.65,9.24,12.71,8.88,13.49a2.35,2.35,0,0,1-1.49,1.24A3.05,3.05,0,0,1,856.6,249.5Zm-.44-2.27h0Z"/><path class="cls-2" d="M797.07,245.77a1.78,1.78,0,0,1-1.7-.92c-.77-1.43.4-2.76,3.69-5.93s7.39-7.68,7.43-7.73a1.5,1.5,0,1,1,2.22,2s-4.07,4.48-7.57,7.87l-1,1,.91-.22a1.5,1.5,0,1,1,.72,2.91s-1.61.4-3.83.91A4.06,4.06,0,0,1,797.07,245.77Z"/><path class="cls-2" d="M798.1,216.33c0-.19-.15-4.68,5.81-7.19l.38.92c-5.31,2.24-5.19,6.18-5.19,6.22Z"/><path class="cls-2" d="M834.7,213.3s-3.5-6.3-8.6-5.2-7.7,4.9-4.7,8.4S830.9,212.4,834.7,213.3Z"/><path class="cls-2" d="M836.8,209.1s-1.2-13.6,3.8-14S850.1,206.8,836.8,209.1Z"/><path class="cls-2" d="M907.29,257.87H905c-15.17-.17-36.6-1.18-53.82-2-14-.66-26-1.23-29.6-1.1-7.35.27-10.89,2.74-10.93,2.76a1.75,1.75,0,0,1-2.07-2.83c.17-.13,4.33-3.12,12.88-3.44,3.73-.14,15.27.41,29.88,1.1,17.2.82,38.59,1.83,53.7,2,27.17.3,73.32-4.94,73.78-5h205.6c.18,0,21.61-.34,56.57,5a1.76,1.76,0,0,1-.54,3.47c-34.61-5.31-55.79-5-56-5H979.1C976.73,253.13,934.25,257.87,907.29,257.87Z"/><path class="cls-2" d="M857.4,201.2a12,12,0,0,0,6.4,3.7c4.3,1,6.4-1.4,6.4-1.4s-.9-6.6-6-5.3A45.75,45.75,0,0,0,857.4,201.2Z"/><circle class="cls-5" cx="848.6" cy="217.9" r="6.4"/><path class="cls-2" d="M845,218.4a5.39,5.39,0,0,1,2.6-1.1,6,6,0,0,1,2.3.4s-1.4-1.6-2.5-1.3A3.11,3.11,0,0,0,845,218.4Z"/></g></g></g></g></svg>