<svg xmlns="http://www.w3.org/2000/svg" xmlns:xlink="http://www.w3.org/1999/xlink" viewBox="0 0 492.5 203.5"><defs><style>.cls-1{fill:url(#Degradado_sin_nombre);}.cls-2{fill:#fff;}.cls-3{fill:#ff5964;}</style><linearGradient id="Degradado_sin_nombre" x1="246.25" y1="478.88" x2="246.25" y2="615.98" gradientTransform="translate(0 -474)" gradientUnits="userSpaceOnUse"><stop offset="0" stop-color="#f09"/><stop offset="1" stop-color="#ff5964"/></linearGradient></defs><title>Recurso 1</title><g id="Capa_2" data-name="Capa 2"><g id="Capa_1-2" data-name="Capa 1"><path class="cls-1" d="M315.3,180.5a7.5,7.5,0,0,1,0-15h8.1a16.8,16.8,0,1,0,0-33.6H306.1a25.1,25.1,0,0,1-15.8-44.6,48.81,48.81,0,0,1-5.3-4.8A26.06,26.06,0,0,1,261.8,97h0a26.06,26.06,0,0,1-23.2-14.5A45.66,45.66,0,0,1,205,97h0a46.22,46.22,0,0,1-46.2-46.2c0-.9,0-1.9.1-3V37.3a17.41,17.41,0,0,0-17.4-17.4h0a17.41,17.41,0,0,0-17.4,17.4V52.2A16.84,16.84,0,0,1,107.3,69h0A16.84,16.84,0,0,1,90.5,52.2V37.3A17.41,17.41,0,0,0,73.1,19.9h0A17.41,17.41,0,0,0,55.7,37.3V71.6A25.82,25.82,0,0,1,29.8,97.4h0A25.86,25.86,0,0,1,4,71.6a7.73,7.73,0,0,1,2.2-5.4A7.73,7.73,0,0,1,11.6,64h0a7.6,7.6,0,0,1,7.6,7.6,10.57,10.57,0,0,0,3.3,7.3,10.81,10.81,0,0,0,7.6,2.9A10.62,10.62,0,0,0,40.4,71.5V37.2A32.61,32.61,0,0,1,72.4,4a32.85,32.85,0,0,1,33.3,32.1V52.2a1.5,1.5,0,0,0,3,0V37.3a32.61,32.61,0,0,1,32-33.2h.6a32.83,32.83,0,0,1,28.5,16.7A46.57,46.57,0,0,1,205,4.7h0a46.14,46.14,0,0,1,31,11.9v-.4a7.91,7.91,0,0,1,2.2-5.4,7.55,7.55,0,0,1,5.4-2.2h0a7.91,7.91,0,0,1,5.4,2.2,7.73,7.73,0,0,1,2.2,5.4V71.3a10.6,10.6,0,1,0,21.2,0V49.4A46,46,0,0,1,318.6,4.8h0a46.39,46.39,0,0,1,32.3,13.1,45.67,45.67,0,0,1,11.4,18,46.16,46.16,0,0,1,74.6-19.3v-.3a7.61,7.61,0,0,1,15.2-.6V48.6c0,.8.1,1.6.1,2.4a17,17,0,0,1-.1,2.3V71.4a10.57,10.57,0,0,0,3.3,7.3,10.81,10.81,0,0,0,7.6,2.9,10.62,10.62,0,0,0,10.3-10.3,7.51,7.51,0,0,1,7.6-7.5h0a7.91,7.91,0,0,1,5.4,2.2,7.73,7.73,0,0,1,2.2,5.4,25.8,25.8,0,0,1-49,11.4,45.66,45.66,0,0,1-33.6,14.5,46.39,46.39,0,0,1-32.3-13.1,45.67,45.67,0,0,1-11.4-18,46,46,0,0,1-43.7,31.1,39.89,39.89,0,0,1-5.9-.4h-6.7a10.21,10.21,0,0,0,.1,20.4h17.2a31.71,31.71,0,0,1,0,63.4h-7.9ZM277.4,49.8Zm-5-.5v0ZM406,19.9a31,31,0,1,0,30.9,32.7V49.1A30.87,30.87,0,0,0,406,19.9ZM174,52.8a30.75,30.75,0,1,0,0-4.3v3.7A.64.64,0,0,1,174,52.8ZM316.9,81.9h3.5A31,31,0,0,0,349.7,51h0a31,31,0,0,0-31-31h0a30.84,30.84,0,0,0-31,30.1v2C288.1,67.8,301,81,316.9,81.9Z"/><path class="cls-2" d="M73,4A32.86,32.86,0,0,1,105.7,36.1V52.2a1.5,1.5,0,0,0,3,0V37.3a32.61,32.61,0,0,1,32-33.2h.6a32.83,32.83,0,0,1,28.5,16.7A46.44,46.44,0,0,1,236,16.6v-.4a7.91,7.91,0,0,1,2.2-5.4,7.55,7.55,0,0,1,5.4-2.2,7.91,7.91,0,0,1,5.4,2.2,7.73,7.73,0,0,1,2.2,5.4V71.3a10.6,10.6,0,1,0,21.2,0V49.4a46.23,46.23,0,0,1,89.9-13.5,46.16,46.16,0,0,1,74.6-19.3v-.3a7.6,7.6,0,0,1,7.3-7.9h.36a7.54,7.54,0,0,1,7.54,7.3V48.6c0,.8.1,1.6.1,2.4a17,17,0,0,1-.1,2.3V71.4a10.57,10.57,0,0,0,3.3,7.3,10.86,10.86,0,0,0,7.25,2.91H463a10.62,10.62,0,0,0,10.3-10.3,7.51,7.51,0,0,1,7.6-7.5,7.91,7.91,0,0,1,5.4,2.2,7.73,7.73,0,0,1,2.2,5.4,25.8,25.8,0,0,1-49,11.4,45.66,45.66,0,0,1-33.6,14.5,46.39,46.39,0,0,1-32.3-13.1,45.67,45.67,0,0,1-11.4-18,46,46,0,0,1-43.7,31.1,39.89,39.89,0,0,1-5.9-.4h-6.7a10.21,10.21,0,0,0,.1,20.4h17.2a31.71,31.71,0,0,1,0,63.4h-7.9v-.2a7.5,7.5,0,0,1,0-15h8.1a16.8,16.8,0,1,0,0-33.6H306.1a25.1,25.1,0,0,1-15.8-44.6,48.81,48.81,0,0,1-5.3-4.8,25.81,25.81,0,0,1-46.4,0A45.66,45.66,0,0,1,205,97a46.22,46.22,0,0,1-46.2-46.2c0-.9,0-1.9.1-3V37.3a17.41,17.41,0,0,0-17.4-17.4,17.41,17.41,0,0,0-17.4,17.4V52.2a16.8,16.8,0,0,1-33.6,0V37.3A17.41,17.41,0,0,0,73.1,19.9,17.41,17.41,0,0,0,55.7,37.3V71.6A25.85,25.85,0,0,1,4,71.6a7.73,7.73,0,0,1,2.2-5.4A7.73,7.73,0,0,1,11.6,64a7.6,7.6,0,0,1,7.6,7.6,10.57,10.57,0,0,0,3.3,7.3,10.86,10.86,0,0,0,7.25,2.91h.35A10.62,10.62,0,0,0,40.4,71.5V37.2A32.61,32.61,0,0,1,72.4,4H73M406,81.9a30.88,30.88,0,0,0,30.9-29.3V49.1A31,31,0,1,0,406,81.9m-201.1,0A31,31,0,1,0,174,48.5v3.7a.64.64,0,0,1,0,.6,31,31,0,0,0,30.9,29.1m112,0h3.5a31,31,0,1,0-32.7-31.8v2c.4,15.7,13.3,28.9,29.2,29.8M277.4,49.85v0m-5-.55v0M73,0h-.62A36.6,36.6,0,0,0,36.4,37.25V71.46A6.59,6.59,0,0,1,30,77.81h-.21A6.84,6.84,0,0,1,25.22,76a6.52,6.52,0,0,1-2-4.45A11.6,11.6,0,1,0,0,71.6a29.85,29.85,0,0,0,59.7,0V37.3a13.39,13.39,0,0,1,22.87-9.47A13.14,13.14,0,0,1,86.5,37.3V52.2a20.8,20.8,0,0,0,41.6,0V37.3A13.34,13.34,0,0,1,132,27.83a13.13,13.13,0,0,1,9.47-3.93,13.42,13.42,0,0,1,13.4,13.4V47.63c-.1,1.21-.1,2.29-.1,3.17A50.26,50.26,0,0,0,205,101a49.46,49.46,0,0,0,32.8-12.17,29.67,29.67,0,0,0,41.68,6.3A29,29,0,0,0,306.1,135.9h17.3a12.8,12.8,0,1,1,0,25.6h-8.1a11.51,11.51,0,0,0-1.52,22.91,4,4,0,0,0,1.52.29h8a35.7,35.7,0,0,0,0-71.39H306.08a6.21,6.21,0,0,1-.1-12.4h6.33a43.91,43.91,0,0,0,6.19.4,50.16,50.16,0,0,0,43.7-25.36,50.22,50.22,0,0,0,43.7,25.36,49.46,49.46,0,0,0,32.8-12.17A29.78,29.78,0,0,0,492.5,71.4a11.7,11.7,0,0,0-3.37-8.22.94.94,0,0,0-.1-.1,11.92,11.92,0,0,0-8.13-3.28,11.54,11.54,0,0,0-8.23,3.38,11.42,11.42,0,0,0-3.37,8.08,6.59,6.59,0,0,1-6.44,6.35h-.21a6.84,6.84,0,0,1-4.53-1.84,6.56,6.56,0,0,1-2-4.44V53.56a22.69,22.69,0,0,0,.1-2.56c0-.52,0-1-.06-1.44s0-.68,0-1v-33A11.58,11.58,0,0,0,444.56,4.4H444a11.7,11.7,0,0,0-8,3.72,12.15,12.15,0,0,0-1.26,1.62,50.21,50.21,0,0,0-72.43,16.39A50.26,50.26,0,0,0,268.41,49c0,.11,0,.22,0,.33v22a6.6,6.6,0,1,1-13.2,0V16.2A11.7,11.7,0,0,0,251.83,8a.94.94,0,0,0-.1-.1A11.92,11.92,0,0,0,243.6,4.6,11.54,11.54,0,0,0,235.37,8l-.09.1a11.91,11.91,0,0,0-1.37,1.74,50.45,50.45,0,0,0-63.53,4.61A36.69,36.69,0,0,0,141.3.1h-.69a36.65,36.65,0,0,0-25.68,11.21,37.22,37.22,0,0,0-7.75,12.08A36.9,36.9,0,0,0,73,0ZM406,77.9a27,27,0,1,1,26.9-28.69v3.28A27,27,0,0,1,406,77.9ZM178,48.66a27.19,27.19,0,1,1,0,4.47,4.47,4.47,0,0,0,0-1.46v-3Zm113.7,1.51A27,27,0,1,1,320.29,77.9H317a27,27,0,0,1-17.67-8.14,26.32,26.32,0,0,1-7.65-17.71V50.17Z"/><path class="cls-3" d="M40.7,130.4v48H32.9l-.6-4.7c-2.6,4-6.8,5.4-10.9,5.4-10,0-17.4-6.6-17.4-17.7,0-11.7,7.3-17.7,17.2-17.7,3.6,0,9.1,1.9,11.1,5.4V130.4Zm-28.4,31c0,5.9,4.2,10,9.6,10a9.9,9.9,0,0,0,0-19.8c-5.3-.1-9.6,3.7-9.6,9.8Z"/><path class="cls-2" d="M40.7,130.4v48H32.9l-.6-4.7c-2.6,4-6.8,5.4-10.9,5.4-10,0-17.4-6.6-17.4-17.7,0-11.7,7.3-17.7,17.2-17.7,3.6,0,9.1,1.9,11.1,5.4V130.4h8.4m-18.8,41a9.9,9.9,0,0,0,0-19.8h-.2c-5.21,0-9.4,3.78-9.4,9.8s4.2,10,9.6,10m18.8-45H32.3a4,4,0,0,0-4,4v10.76a19.56,19.56,0,0,0-7.1-1.46C8.32,139.7,0,148.22,0,161.4c0,12.78,8.8,21.7,21.4,21.7a18.1,18.1,0,0,0,8.55-2,4,4,0,0,0,2.95,1.29h7.8a4,4,0,0,0,4-4v-48a4,4,0,0,0-4-4Zm-18.87,41c-3.26,0-5.53-2.49-5.53-6s2.12-5.8,5.4-5.8h.09a6,6,0,0,1,5.71,5.76,5.72,5.72,0,0,1-1.58,4.16,5.94,5.94,0,0,1-4.09,1.88Z"/><path class="cls-3" d="M58.9,164.4c.6,4.2,4.2,7.2,10.1,7.2,3.1,0,7.1-1.2,9.1-3.2l5.4,5.3c-3.6,3.7-9.4,5.5-14.6,5.5-11.7,0-18.6-7.2-18.6-18,0-10.3,7-17.7,18-17.7,11.3,0,18.4,7,17.1,20.9Zm18.4-6.9c-.5-4.4-4-6.6-8.8-6.6-4.5,0-8.2,2.2-9.5,6.6Z"/><path class="cls-2" d="M68.3,143.5c11.3,0,18.4,7,17.1,20.9H58.9c.6,4.2,4.2,7.2,10.1,7.2,3.1,0,7.1-1.2,9.1-3.2l5.4,5.3c-3.6,3.7-9.4,5.5-14.6,5.5-11.7,0-18.6-7.2-18.6-18,0-10.3,7-17.7,18-17.7m-9.3,14H77.3c-.5-4.4-4-6.6-8.8-6.6-4.5,0-8.2,2.2-9.5,6.6m9.3-18c-12.95,0-22,8.93-22,21.7,0,13.37,8.87,22,22.6,22,6.85,0,13.38-2.5,17.47-6.71a4,4,0,0,0-.07-5.64l-2.49-2.45H85.4a4,4,0,0,0,4-3.62c.75-8-1-14.52-5.07-19-3.75-4.12-9.29-6.3-16-6.3Z"/><path class="cls-3" d="M119.2,153.5a11.35,11.35,0,0,0-8.4-3c-4,0-6.2,1.2-6.2,3.4s2,3.4,6.3,3.7c6.4.4,14.5,1.9,14.5,10.8,0,6-4.9,11.1-14.6,11.1-5.4,0-10.7-.9-15.6-6l4.1-6c2.4,2.7,7.9,4.7,11.7,4.7,3.1.1,6.1-1.6,6.1-4.1s-1.9-3.3-6.7-3.6c-6.4-.5-14-2.8-14-10.5s8.1-10.6,14.3-10.6c5.3,0,9.3,1,13.2,4.5Z"/><path class="cls-2" d="M110.7,143.4c5.3,0,9.3,1,13.2,4.5l-4.7,5.6a11.41,11.41,0,0,0-7.68-3l-.72,0c-4,0-6.2,1.2-6.2,3.4s2,3.4,6.3,3.7c6.4.4,14.5,1.9,14.5,10.8,0,6-4.9,11.1-14.6,11.1-5.4,0-10.7-.9-15.6-6l4.1-6c2.4,2.7,7.9,4.7,11.7,4.7h.26c3,0,5.84-1.68,5.84-4.11s-1.9-3.3-6.7-3.6c-6.4-.5-14-2.8-14-10.5s8.1-10.6,14.3-10.6m0-4a23,23,0,0,0-11.54,3A13.22,13.22,0,0,0,92.4,154a12.47,12.47,0,0,0,4.74,10.14A3.89,3.89,0,0,0,96,165.25l-4.1,6a4,4,0,0,0,.42,5c6.12,6.37,12.77,7.22,18.48,7.22,12.85,0,18.6-7.58,18.6-15.1,0-5.44-2.4-9.63-6.94-12.1l-.27-.14.07-.08,4.7-5.6a4,4,0,0,0-.39-5.55c-5.42-4.87-11.06-5.53-15.87-5.53Z"/><path class="cls-3" d="M144.9,135c0,6.5-9.9,6.5-9.9,0S144.9,128.5,144.9,135Zm-9.1,9.4v34h8.4v-34Z"/><path class="cls-2" d="M140,130.13A4.88,4.88,0,1,1,135,135a4.72,4.72,0,0,1,4.95-4.87m4.25,14.27v34h-8.4v-34h8.4M140,126.13a8.94,8.94,0,0,0-6.53,15.06,4,4,0,0,0-1.62,3.21v34a4,4,0,0,0,4,4h8.4a4,4,0,0,0,4-4v-34a4,4,0,0,0-1.68-3.25A8.84,8.84,0,0,0,148.9,135a8.71,8.71,0,0,0-9-8.87Z"/><path class="cls-3" d="M182.7,141.1l6.2,4.7-3.8,4.8a14.67,14.67,0,0,1,3.6,10c0,4.2-1.6,10.1-7.1,12.6,5.6,2.8,7,6.9,7,11.2,0,9.3-7.1,15.1-17,15.1s-17.2-6-17.2-15.1h8.3c0,4.4,4.1,7.3,8.9,7.3s8.6-2.6,8.6-7.3-4.4-6.8-8.6-6.8c-10.6,0-17.2-6.4-17.2-17s7.7-17.2,17.2-17.2a13.52,13.52,0,0,1,7.8,1.9Zm-20,19.5c0,5.9,4,9.4,8.9,9.4s8.8-3.6,8.8-9.4-4-9.5-8.8-9.5-8.8,3.6-8.9,9.5Z"/><path class="cls-2" d="M182.7,141.1l6.2,4.7-3.8,4.8a14.67,14.67,0,0,1,3.6,10c0,4.2-1.6,10.1-7.1,12.6,5.6,2.8,7,6.9,7,11.2,0,9.3-7.1,15.1-17,15.1s-17.2-6-17.2-15.1h8.3c0,4.4,4.1,7.3,8.9,7.3s8.6-2.6,8.6-7.3-4.4-6.8-8.6-6.8c-10.6,0-17.2-6.4-17.2-17s7.7-17.2,17.2-17.2c.3,0,.61,0,.91,0a13.74,13.74,0,0,1,6.89,1.93l3.3-4.2M171.6,170c4.9,0,8.8-3.6,8.8-9.4s-4-9.5-8.8-9.5-8.8,3.6-8.9,9.5,4,9.4,8.9,9.4m11.1-32.9a4,4,0,0,0-3.15,1.53l-1.35,1.73a17.25,17.25,0,0,0-5.69-1q-.52,0-1,0c-12.21.07-21.06,9-21.06,21.2,0,12.76,8.32,21,21.2,21,.47,0,4.6.08,4.6,2.8,0,3-3.22,3.3-4.6,3.3-2.38,0-4.9-1.15-4.9-3.3a4,4,0,0,0-4-4h-8.3a4,4,0,0,0-4,4c0,11.07,8.92,19.1,21.2,19.1s21-7.85,21-19.1a15.46,15.46,0,0,0-4.3-11.29,19.21,19.21,0,0,0,4.4-12.45,18.68,18.68,0,0,0-2.6-9.92l1.94-2.45a4,4,0,0,0-.72-5.67l-6.2-4.7a4,4,0,0,0-2.42-.82Zm-16,23.54c.07-3.36,2-5.54,4.9-5.54s4.8,2.21,4.8,5.5-1.84,5.4-4.8,5.4-4.89-2.05-4.9-5.36Z"/><path class="cls-3" d="M223.6,178.3V160.7c0-5.1-2.8-9.1-8.2-9.1-5.1,0-8.6,4.3-8.6,9.5v17.3h-8.3V144.5H206l.5,4.6c3.4-3.4,6.9-5.1,11.1-5.1,8,0,14.3,6,14.3,16.6v17.8Z"/><path class="cls-2" d="M217.6,144c8,0,14.3,6,14.3,16.6v17.8l-8.3-.1V160.7c0-5.1-2.8-9.1-8.2-9.1-5.1,0-8.6,4.3-8.6,9.5v17.3h-8.3V144.5H206l.5,4.6c3.4-3.4,6.9-5.1,11.1-5.1m0-4a17.62,17.62,0,0,0-8.41,2.09A4,4,0,0,0,206,140.5h-7.5a4,4,0,0,0-4,4v33.9a4,4,0,0,0,4,4h8.3a4,4,0,0,0,4-4V161.1c0-2.73,1.58-5.5,4.6-5.5,1.92,0,4.2.89,4.2,5.1v17.6a4,4,0,0,0,4,4l8.3.1h.05a4,4,0,0,0,4-4V160.6c0-12.12-7.53-20.6-18.3-20.6Z"/><path class="cls-3" d="M250,164.4c.5,4.2,4.2,7.2,10.1,7.2,3.1,0,7.1-1.2,9.1-3.2l5.4,5.3c-3.6,3.7-9.4,5.5-14.5,5.5-11.7,0-18.6-7.2-18.6-18,0-10.3,7-17.7,18-17.7,11.3,0,18.4,7,17.1,20.9Zm18.4-6.9c-.5-4.4-4-6.6-8.8-6.6-4.5,0-8.2,2.2-9.5,6.6Z"/><path class="cls-2" d="M259.5,143.5c11.3,0,18.4,7,17.1,20.9H250c.5,4.2,4.2,7.2,10.1,7.2,3.1,0,7.1-1.2,9.1-3.2l5.4,5.3c-3.6,3.7-9.4,5.5-14.5,5.5-11.7,0-18.6-7.2-18.6-18,0-10.3,7-17.7,18-17.7m-9.4,14h18.3c-.5-4.4-4-6.6-8.8-6.6-4.5,0-8.2,2.2-9.5,6.6m9.4-18c-12.95,0-22,8.93-22,21.7,0,13.37,8.87,22,22.6,22,6.68,0,13.34-2.57,17.37-6.71a4,4,0,0,0-.07-5.64l-2.49-2.45h1.69a4,4,0,0,0,4-3.62c.75-8-1-14.52-5.07-19-3.75-4.12-9.29-6.3-16-6.3Z"/><path class="cls-3" d="M294.2,144.5l.6,3.9c2.6-4.2,6.1-4.8,9.5-4.8a13.17,13.17,0,0,1,8.7,3.2l-3.8,7.3a8.29,8.29,0,0,0-6-2.2c-4.4,0-8.4,2.3-8.4,8.6v17.8h-8.4V144.5Z"/><path class="cls-2" d="M304.3,143.6a13.17,13.17,0,0,1,8.7,3.2l-3.8,7.3a8.31,8.31,0,0,0-5.63-2.2h-.37c-4.4,0-8.4,2.3-8.4,8.6v17.8h-8.4V144.5h7.8l.6,3.9c2.6-4.2,6.1-4.8,9.5-4.8m0-4a16.1,16.1,0,0,0-7.72,1.69,4,4,0,0,0-2.38-.79h-7.8a4,4,0,0,0-4,4v33.8a4,4,0,0,0,4,4h8.4a4,4,0,0,0,4-4V160.5c0-2.27.52-4.6,4.4-4.6h.37a4.26,4.26,0,0,1,2.89,1.12,4,4,0,0,0,2.74,1.08,3.78,3.78,0,0,0,.67,0,4,4,0,0,0,2.88-2.1l3.8-7.3a4,4,0,0,0-.92-4.86,17.16,17.16,0,0,0-11.33-4.19Z"/></g></g></svg>